<?xml version="1.0" encoding="UTF-8"?>
<svg version="1.1" xmlns="http://www.w3.org/2000/svg" width="512" height="512">
<path d="M0 0 C168.96 0 337.92 0 512 0 C512 168.96 512 337.92 512 512 C343.04 512 174.08 512 0 512 C0 343.04 0 174.08 0 0 Z " fill="#FEFEFE" transform="translate(0,0)"/>
<path d="M0 0 C1.06114014 0.00829834 2.12228027 0.01659668 3.21557617 0.02514648 C18.79277846 0.36048655 30.89027806 5.92634938 42.41015625 16.50390625 C53.46883325 28.12608271 58.66697893 42.30794052 58.61865234 58.14233398 C58.1910213 73.09377541 52.34887305 86.67854162 42.1953125 97.62890625 C29.43478244 109.49261191 14.26372423 114.39021917 -2.90625 114.66796875 C-5.75 114.4375 -5.75 114.4375 -12.75 112.4375 C-12.75 118.7075 -12.75 124.9775 -12.75 131.4375 C-9.52561157 131.42084541 -9.52561157 131.42084541 -6.23608398 131.40385437 C14.01078857 131.30166882 34.25762711 131.22726549 54.50469971 131.17843914 C64.91420682 131.15266858 75.32352458 131.1175399 85.73291016 131.06030273 C94.806805 131.01043274 103.88056271 130.97820064 112.9545908 130.96705753 C117.75832155 130.96054488 122.56166 130.94526215 127.36526489 130.90884972 C131.88955188 130.87483344 136.41328611 130.86445838 140.93768883 130.87196159 C142.59529312 130.87058956 144.25291648 130.86069044 145.91040993 130.84147263 C161.36577055 130.67111213 161.36577055 130.67111213 166.79544926 134.98541546 C171.5140555 139.69602127 172.70896115 143.23626551 172.80322266 149.73318481 C172.79669678 150.67765472 172.7901709 151.62212463 172.78344727 152.59521484 C172.79206284 153.6042688 172.80067841 154.61332275 172.80955505 155.6529541 C172.83223094 158.98504409 172.8254673 162.3162932 172.81640625 165.6484375 C172.82164491 167.97808073 172.82792228 170.30772183 172.83518982 172.63735962 C172.8456 177.52477987 172.84102914 182.41190916 172.82641602 187.29931641 C172.80931756 193.52396238 172.83261013 199.74767751 172.86790562 205.97221947 C172.89001913 210.78880792 172.88840301 215.60517903 172.8801403 220.42180252 C172.87932666 222.71402627 172.8860762 225.00626695 172.90091133 227.29844284 C173.00023377 245.4388469 171.48885238 260.43552626 160.25 275.4375 C159.55970703 276.40042969 159.55970703 276.40042969 158.85546875 277.3828125 C150.074141 288.66947584 135.29981896 296.54200434 121.25 298.4375 C108.08382842 299.47117651 96.27587768 299.2732812 84.25 293.4375 C83.98316406 294.32050781 83.71632813 295.20351563 83.44140625 296.11328125 C75.91957917 317.1004119 55.43112924 333.76179807 35.875 343.1875 C23.38482876 348.5324767 11.09767726 351.61581238 -2.5 351.625 C-3.4384375 351.63724609 -4.376875 351.64949219 -5.34375 351.66210938 C-11.71988437 351.6753196 -17.55674135 350.92804674 -23.75 349.4375 C-24.92046875 349.16550781 -26.0909375 348.89351563 -27.296875 348.61328125 C-52.4694123 341.82897546 -73.26755827 325.61397658 -86.75 303.4375 C-88.93170938 299.50946623 -90.9132876 295.53751607 -92.75 291.4375 C-93.06710938 290.73109375 -93.38421875 290.0246875 -93.7109375 289.296875 C-95.2722668 285.49403335 -96.11782872 281.7394931 -96.828125 277.69140625 C-97.0024707 276.70599854 -97.17681641 275.72059082 -97.35644531 274.70532227 C-97.48631836 273.95694092 -97.61619141 273.20855957 -97.75 272.4375 C-98.95189972 272.44638245 -100.15379944 272.45526489 -101.39212036 272.4644165 C-112.72163023 272.54552072 -124.05108115 272.60547438 -135.38081551 272.64474869 C-141.20549753 272.66561886 -147.0299451 272.69392663 -152.85449219 272.73925781 C-158.47604551 272.7827351 -164.09737339 272.8066414 -169.71908188 272.81700897 C-171.86329573 272.82439689 -174.00749732 272.83882377 -176.15161514 272.86042023 C-179.15619777 272.88947867 -182.15985012 272.89345491 -185.16455078 272.89160156 C-186.05000076 272.90598267 -186.93545074 272.92036377 -187.84773254 272.93518066 C-194.56197273 272.89039856 -198.03074247 270.86278374 -203.0625 266.375 C-206.22772816 262.74084915 -205.88146042 259.21148184 -205.89717102 254.58732605 C-205.90084771 253.88662516 -205.9045244 253.18592428 -205.9083125 252.46399003 C-205.91934697 250.11034469 -205.92319275 247.75674351 -205.92700195 245.40307617 C-205.93326672 243.71780761 -205.93991353 242.03254044 -205.94691467 240.34727478 C-205.9643215 235.76455589 -205.97487531 231.18184744 -205.9831202 226.59910369 C-205.98827046 223.73646536 -205.99434614 220.87383027 -206.00063133 218.01119423 C-206.01968153 209.05602064 -206.0339137 200.1008553 -206.0422433 191.14566535 C-206.05201966 180.80565621 -206.07835028 170.46586092 -206.11874419 160.12592715 C-206.14889063 152.13517899 -206.16371073 144.14449219 -206.16702431 136.15368825 C-206.16937623 131.38032344 -206.17835522 126.60718714 -206.20348549 121.83388329 C-206.22674589 117.3432487 -206.23100769 112.85299341 -206.22072411 108.36231422 C-206.22022816 106.71517298 -206.22656596 105.06801318 -206.24028015 103.42092896 C-206.25797427 101.1697063 -206.2509066 98.91984861 -206.23774719 96.66862488 C-206.24013555 95.40966495 -206.2425239 94.15070501 -206.24498463 92.85359478 C-205.4560979 87.40915936 -203.00775137 84.38723062 -198.6875 81.125 C-194.57621901 78.76320028 -191.73911718 78.31306928 -187.07429504 78.31724548 C-185.89218948 78.31587082 -184.71008392 78.31449615 -183.49215698 78.31307983 C-181.54468063 78.31847275 -181.54468063 78.31847275 -179.55786133 78.32397461 C-178.17812604 78.32425666 -176.7983906 78.32409841 -175.4186554 78.3235321 C-171.67100557 78.32324481 -167.92338765 78.32913063 -164.17574525 78.33610606 C-160.25996197 78.34235084 -156.34417799 78.34294429 -152.4283905 78.34413147 C-145.01237979 78.34724146 -137.5963838 78.35545039 -130.18037957 78.36548096 C-121.73790917 78.37665239 -113.29543808 78.38215515 -104.85296214 78.38717639 C-87.48529957 78.39763327 -70.11765134 78.4152263 -52.75 78.4375 C-52.96112427 77.7089682 -53.17224854 76.9804364 -53.38977051 76.22982788 C-53.80108215 74.77487411 -53.80108215 74.77487411 -54.22070312 73.29052734 C-54.49370239 72.33512054 -54.76670166 71.37971375 -55.04797363 70.39535522 C-56.1805741 65.62335753 -56.28261232 60.94856885 -56.25 56.0625 C-56.24427979 55.05735352 -56.23855957 54.05220703 -56.23266602 53.01660156 C-56.03731022 44.86822584 -54.74693134 38.64209522 -50.75 31.4375 C-50.23050781 30.4784375 -49.71101562 29.519375 -49.17578125 28.53125 C-41.196552 14.99073976 -29.20987427 5.74304859 -14.24023438 1.00878906 C-9.52317581 -0.07335967 -4.81951347 -0.04844307 0 0 Z " fill="#4C53BA" transform="translate(272.75,16.5625)"/>
<path d="M0 0 C22.28778485 -0.1168552 44.57551912 -0.20499898 66.86354828 -0.25906086 C77.21252184 -0.28483111 87.56130494 -0.31995919 97.91015625 -0.37719727 C106.93131339 -0.42706822 115.95233259 -0.45929959 124.97362375 -0.47044247 C129.74940985 -0.47695496 134.52480132 -0.49223664 139.30046082 -0.52865028 C143.79848382 -0.56266809 148.29595084 -0.57304132 152.79409027 -0.56553841 C154.44201939 -0.56691037 156.08996772 -0.57680859 157.73778534 -0.59602737 C173.10470362 -0.76641526 173.10470362 -0.76641526 178.54222202 3.54791546 C183.26647837 8.25372095 184.45897557 11.79975933 184.55322266 18.29568481 C184.54669678 19.24015472 184.5401709 20.18462463 184.53344727 21.15771484 C184.54206284 22.1667688 184.55067841 23.17582275 184.55955505 24.2154541 C184.58223094 27.54754409 184.5754673 30.8787932 184.56640625 34.2109375 C184.57164491 36.54058073 184.57792228 38.87022183 184.58518982 41.19985962 C184.5956 46.08727987 184.59102914 50.97440916 184.57641602 55.86181641 C184.55931756 62.08646238 184.58261013 68.31017751 184.61790562 74.53471947 C184.64001913 79.35130792 184.63840301 84.16767903 184.6301403 88.98430252 C184.62932666 91.27652627 184.6360762 93.56876695 184.65091133 95.86094284 C184.75023377 114.0013469 183.23885238 128.99802626 172 144 C171.30970703 144.96292969 171.30970703 144.96292969 170.60546875 145.9453125 C161.824141 157.23197584 147.04981896 165.10450434 133 167 C119.83382842 168.03367651 108.02587768 167.8357812 96 162 C95.73316406 162.88300781 95.46632813 163.76601563 95.19140625 164.67578125 C87.66957917 185.6629119 67.18112924 202.32429807 47.625 211.75 C35.13482876 217.0949767 22.84767726 220.17831238 9.25 220.1875 C8.3115625 220.19974609 7.373125 220.21199219 6.40625 220.22460938 C0.03011563 220.2378196 -5.80674135 219.49054674 -12 218 C-13.17046875 217.72800781 -14.3409375 217.45601562 -15.546875 217.17578125 C-40.88740184 210.34620024 -61.2818106 194.14595599 -75 172 C-75.67690031 170.67183277 -76.34569505 169.33944289 -77 168 C-75.67361511 167.99453156 -75.67361511 167.99453156 -74.32043457 167.98895264 C-65.96393424 167.95099659 -57.60782117 167.89405765 -49.25159454 167.81609726 C-44.95612621 167.77668363 -40.660861 167.74446538 -36.36523438 167.72900391 C-32.21526102 167.71379673 -28.06584631 167.67928009 -23.91612244 167.63169098 C-22.33744681 167.61691883 -20.75869141 167.60896138 -19.1799469 167.60811615 C-7.49594348 167.69946549 -7.49594348 167.69946549 3 163 C7.38847348 157.59880187 8.11895489 153.54666708 8.15821838 146.74847412 C8.1680072 145.46402405 8.17779602 144.17957397 8.18788147 142.85620117 C8.19378529 141.43505897 8.19959576 140.01391637 8.20532227 138.59277344 C8.21490357 137.09466279 8.22491381 135.59655484 8.23532104 134.09844971 C8.26234879 130.03271775 8.28336989 125.96697421 8.30332303 121.9012022 C8.32519572 117.65174437 8.35257814 113.40232216 8.37937927 109.15289307 C8.4292888 101.106538 8.47423409 93.06016314 8.51740164 85.01376939 C8.56678887 75.85300518 8.62170149 66.69227671 8.67708123 57.53154707 C8.79087457 38.68773123 8.89771939 19.84388166 9 1 C6.03 1 3.06 1 0 1 C0 0.67 0 0.34 0 0 Z " fill="#7B83EA" transform="translate(261,148)"/>
<path d="M0 0 C0.67160156 0.4640625 1.34320313 0.928125 2.03515625 1.40625 C3.08703125 2.128125 4.13890625 2.85 5.22265625 3.59375 C21.55434194 19.92543569 28.53531002 45.72769551 34.4987793 67.47998047 C35.01800913 69.3446702 35.59021808 71.19435576 36.1640625 73.04296875 C37.62303569 78.97665762 37.28445114 85.08734179 37.22265625 91.15625 C37.22168945 92.98349609 37.22168945 92.98349609 37.22070312 94.84765625 C37.17214883 104.63404318 37.17214883 104.63404318 36.03515625 108.40625 C35.37515625 108.40625 34.71515625 108.40625 34.03515625 108.40625 C33.95265625 109.4375 33.87015625 110.46875 33.78515625 111.53125 C32.93262324 115.93600387 31.69274136 117.89137937 29.03515625 121.40625 C31.67515625 121.40625 34.31515625 121.40625 37.03515625 121.40625 C35.26673737 130.69044912 27.23702708 137.95618559 20.03515625 143.40625 C17.66351722 144.59206951 16.4104336 144.41519272 13.78515625 144.28125 C9.40628459 144.23236308 6.87002766 145.20323876 3.03515625 147.40625 C1.71319002 147.97509607 0.37878199 148.51564315 -0.96484375 149.03125 C-1.58359375 149.27101563 -2.20234375 149.51078125 -2.83984375 149.7578125 C-14.20784019 153.22672318 -26.15596868 152.06918159 -36.96484375 147.40625 C-41.17933606 144.90756493 -44.24085698 142.49223016 -46.96484375 138.40625 C-47.58359375 138.90125 -48.20234375 139.39625 -48.83984375 139.90625 C-50.96484375 141.40625 -50.96484375 141.40625 -52.96484375 141.40625 C-53.29484375 142.39625 -53.62484375 143.38625 -53.96484375 144.40625 C-58.96895945 145.03176446 -62.81254938 145.01428538 -67.02734375 142.03125 C-72.57780207 137.35952155 -78.18067249 131.18387903 -80.96484375 124.40625 C-80.96484375 123.41625 -80.96484375 122.42625 -80.96484375 121.40625 C-79.95164062 121.35017578 -79.95164062 121.35017578 -78.91796875 121.29296875 C-78.0259375 121.22722656 -77.13390625 121.16148437 -76.21484375 121.09375 C-75.333125 121.03574219 -74.45140625 120.97773438 -73.54296875 120.91796875 C-70.64180601 120.3421319 -69.17258768 119.33028852 -66.96484375 117.40625 C-67.38997242 113.41004051 -68.06055115 109.97900601 -69.4765625 106.21484375 C-74.07372388 92.64524371 -70.61062626 78.44515315 -65.96484375 65.40625 C-65.3282494 63.56689223 -64.69174668 61.72750228 -64.05671692 59.88760376 C-45.77597554 7.02501659 -45.77597554 7.02501659 -28.83984375 -2.21875 C-19.67774251 -5.61995632 -8.34328968 -5.01433103 0 0 Z " fill="#020203" transform="translate(179.96484375,128.59375)"/>
<path d="M0 0 C10.19661806 -0.09276059 20.39313541 -0.16379579 30.5900898 -0.20724869 C35.32518565 -0.22810605 40.0599924 -0.25638979 44.79492188 -0.30175781 C49.36609608 -0.34528173 53.93699255 -0.36915104 58.508358 -0.37950897 C60.25066372 -0.38688861 61.99295457 -0.40129947 63.73514175 -0.42292023 C66.1793911 -0.4520419 68.62249907 -0.45595245 71.06689453 -0.45410156 C71.78403122 -0.46848267 72.50116791 -0.48286377 73.24003601 -0.49768066 C78.31354207 -0.45622617 81.15604011 0.72486729 85 4 C89.59211786 9.12843298 89.57871529 13.60621616 89.53344727 20.15771484 C89.54637062 21.67129578 89.54637062 21.67129578 89.55955505 23.2154541 C89.58223094 26.54754409 89.5754673 29.8787932 89.56640625 33.2109375 C89.57164491 35.54058073 89.57792228 37.87022183 89.58518982 40.19985962 C89.5956 45.08727987 89.59102914 49.97440916 89.57641602 54.86181641 C89.55931756 61.08646238 89.58261013 67.31017751 89.61790562 73.53471947 C89.64001913 78.35130792 89.63840301 83.16767903 89.6301403 87.98430252 C89.62932666 90.27652627 89.6360762 92.56876695 89.65091133 94.86094284 C89.75023377 113.0013469 88.23885238 127.99802626 77 143 C76.53980469 143.64195312 76.07960938 144.28390625 75.60546875 144.9453125 C66.82501398 156.23085379 52.04927428 164.10652785 38 166 C25.23266445 166.99608484 13.52477226 167.19373557 2 161 C2.92695491 155.67000926 4.58849172 150.5730782 6.18359375 145.4140625 C6.40144531 144.6921875 6.61929687 143.9703125 6.84375 143.2265625 C7.04162109 142.58283691 7.23949219 141.93911133 7.44335938 141.27587891 C9.15507999 134.27734402 9.15940254 127.37777752 9.17700195 120.20898438 C9.18357315 119.0390242 9.19014435 117.86906403 9.19691467 116.66365051 C9.21656454 112.80701629 9.22828835 108.95042075 9.23828125 105.09375 C9.24235678 103.77396652 9.2464323 102.45418304 9.25063133 101.09440613 C9.26964336 94.83402023 9.28388747 88.57364588 9.2922433 82.31323671 C9.30202694 75.10427425 9.32839216 67.89561788 9.36874419 60.68676329 C9.39893644 55.10014451 9.41371475 49.51361345 9.41702431 43.92691469 C9.41936951 40.59607212 9.43025017 37.26563231 9.45348549 33.93486023 C9.47780117 30.21999569 9.47692577 26.50593518 9.4699707 22.79101562 C9.48278076 21.69574051 9.49559082 20.60046539 9.50878906 19.47200012 C9.46516123 13.07832441 8.90054835 9.14758619 5 4 C2.41139607 1.6090093 2.41139607 1.6090093 0 0 Z " fill="#5059C9" transform="translate(356,149)"/>
<path d="M0 0 C1.06114014 0.00829834 2.12228027 0.01659668 3.21557617 0.02514648 C18.79277846 0.36048655 30.89027806 5.92634938 42.41015625 16.50390625 C53.46883325 28.12608271 58.66697893 42.30794052 58.61865234 58.14233398 C58.1910213 73.09377541 52.34887305 86.67854162 42.1953125 97.62890625 C28.52903696 110.33470057 12.54896633 114.7353132 -5.75 114.4375 C-5.09 114.1075 -4.43 113.7775 -3.75 113.4375 C-3.8020761 109.56142213 -3.89720198 105.68753829 -4 101.8125 C-4.01417969 100.71808594 -4.02835938 99.62367187 -4.04296875 98.49609375 C-4.25531751 90.19690622 -4.25531751 90.19690622 -8.75 83.4375 C-16.48475934 78.10924278 -24.80487119 78.90127956 -33.81445312 78.98339844 C-35.54960097 78.9845278 -37.28475072 78.98389132 -39.01989746 78.98162842 C-43.71365781 78.98048382 -48.40700677 79.00395195 -53.10067177 79.03192425 C-58.01203941 79.05698027 -62.92341717 79.05928321 -67.83483887 79.06402588 C-77.12781292 79.07644331 -86.42059807 79.10924826 -95.71348906 79.14942384 C-106.29627603 79.1941799 -116.87907217 79.21613823 -127.46193027 79.23620558 C-149.22472549 79.27798196 -170.98735083 79.34831006 -192.75 79.4375 C-192.75 79.1075 -192.75 78.7775 -192.75 78.4375 C-146.55 78.4375 -100.35 78.4375 -52.75 78.4375 C-53.74 74.8075 -54.73 71.1775 -55.75 67.4375 C-56.07128717 63.5659896 -56.27577045 59.92350049 -56.25 56.0625 C-56.24427979 55.05735352 -56.23855957 54.05220703 -56.23266602 53.01660156 C-56.03731022 44.86822584 -54.74693134 38.64209522 -50.75 31.4375 C-50.23050781 30.4784375 -49.71101562 29.519375 -49.17578125 28.53125 C-41.196552 14.99073976 -29.20987427 5.74304859 -14.24023438 1.00878906 C-9.52317581 -0.07335967 -4.81951347 -0.04844307 0 0 Z " fill="#7B83EA" transform="translate(272.75,16.5625)"/>
<path d="M0 0 C2.7442412 1.61556135 5.38053408 3.23776664 7.9375 5.140625 C9.14599609 6.03201172 9.14599609 6.03201172 10.37890625 6.94140625 C17.54446376 13.10050377 22.19680876 22.57624888 23.25 31.91015625 C23.73592567 43.49644647 20.37149807 53.61501418 13.19140625 62.69921875 C5.24911417 71.30222143 -5.33156309 76.05026941 -17.0625 76.640625 C-26.8903211 76.1604383 -35.82594865 72.77269116 -43.0625 66.140625 C-43.949375 65.33625 -44.83625 64.531875 -45.75 63.703125 C-54.66696243 53.82216663 -57.03124399 44.10316883 -56.6015625 30.953125 C-55.83883177 21.27909305 -50.69921333 12.2970864 -43.453125 5.89453125 C-30.75427766 -3.42210675 -14.84876747 -7.32126729 0 0 Z " fill="#515AC9" transform="translate(414.0625,54.859375)"/>
<path d="M0 0 C3.3 0 6.6 0 10 0 C10.07011172 19.69741943 10.12299879 39.39481351 10.15543652 59.09233189 C10.1708989 68.23843624 10.19197642 77.38446302 10.22631836 86.53051758 C10.25623994 94.50313604 10.27557957 102.4756983 10.28226548 110.44837135 C10.28617307 114.66902145 10.29534333 118.8895108 10.31719017 123.11010933 C10.33759894 127.08520819 10.34382496 131.06008055 10.33932304 135.03522682 C10.34014629 136.49166343 10.34608585 137.94810786 10.35761642 139.40449905 C10.47401312 154.86874115 10.47401312 154.86874115 4.6875 161.75 C-0.46902832 166.06709347 -4.59201998 167.37583147 -11.29052734 167.34057617 C-11.99366058 167.34101425 -12.69679382 167.34145233 -13.42123413 167.34190369 C-15.72642583 167.33982728 -18.03087415 167.31655188 -20.3359375 167.29296875 C-21.94161583 167.28736868 -23.54729931 167.28310052 -25.15298462 167.28010559 C-29.36495284 167.2686891 -33.5766073 167.23924979 -37.78845215 167.20599365 C-42.09199785 167.17522357 -46.39559459 167.16158547 -50.69921875 167.14648438 C-59.13295597 167.1143767 -67.56643888 167.06321945 -76 167 C-76.97712504 165.07842886 -77.95053635 163.15496896 -78.92236328 161.23071289 C-79.73605881 159.62432701 -79.73605881 159.62432701 -80.56619263 157.98548889 C-82.07596708 154.84182055 -83.12443992 151.8428189 -83.875 148.4375 C-84.09929687 147.46683594 -84.32359375 146.49617187 -84.5546875 145.49609375 C-85 143 -85 143 -85 140 C-84.10321533 139.99857498 -83.20643066 139.99714996 -82.2824707 139.99568176 C-73.80820516 139.97781135 -65.33445918 139.93607828 -56.86044312 139.86790943 C-52.50438629 139.83369907 -48.14867796 139.80853878 -43.79248047 139.80444336 C-39.58407818 139.80014753 -35.37646123 139.77157956 -31.16830444 139.72656822 C-29.5672972 139.71363402 -27.96619578 139.70927105 -26.36514282 139.71384621 C-15.33903865 139.92194705 -15.33903865 139.92194705 -5.45410156 135.55717468 C-1.9632327 131.81885767 -0.62604277 128.58918426 -0.60127258 123.50138855 C-0.58246536 121.86293976 -0.58246536 121.86293976 -0.5632782 120.19139099 C-0.56543083 118.40898766 -0.56543083 118.40898766 -0.56762695 116.59057617 C-0.5574353 115.33163544 -0.54724365 114.0726947 -0.53674316 112.77560425 C-0.5091985 109.33177221 -0.49989218 105.8881053 -0.49388909 102.44417739 C-0.48449875 98.84197575 -0.45829486 95.23989713 -0.43388367 91.63777161 C-0.39023304 84.82038884 -0.36167731 78.00302997 -0.33856028 71.18555003 C-0.31150086 63.42251218 -0.26758984 55.65959816 -0.22227156 47.89664876 C-0.12944589 31.93116063 -0.05835345 15.96565341 0 0 Z " fill="#454A88" transform="translate(260,149)"/>
<path d="M0 0 C0.33 0 0.66 0 1 0 C1.07011172 19.69741943 1.12299879 39.39481351 1.15543652 59.09233189 C1.1708989 68.23843624 1.19197642 77.38446302 1.22631836 86.53051758 C1.25623994 94.50313604 1.27557957 102.4756983 1.28226548 110.44837135 C1.28617307 114.66902145 1.29534333 118.8895108 1.31719017 123.11010933 C1.33759894 127.08520819 1.34382496 131.06008055 1.33932304 135.03522682 C1.34014629 136.49166343 1.34608585 137.94810786 1.35761642 139.40449905 C1.47401312 154.86874115 1.47401312 154.86874115 -4.3125 161.75 C-9.46902832 166.06709347 -13.59201998 167.37583147 -20.29052734 167.34057617 C-20.99366058 167.34101425 -21.69679382 167.34145233 -22.42123413 167.34190369 C-24.72642583 167.33982728 -27.03087415 167.31655188 -29.3359375 167.29296875 C-30.94161583 167.28736868 -32.54729931 167.28310052 -34.15298462 167.28010559 C-38.36495284 167.2686891 -42.5766073 167.23924979 -46.78845215 167.20599365 C-51.09199785 167.17522357 -55.39559459 167.16158547 -59.69921875 167.14648438 C-68.13295597 167.1143767 -76.56643888 167.06321945 -85 167 C-85.98929461 165.13032395 -86.96600469 163.25398622 -87.9375 161.375 C-88.48277344 160.33085937 -89.02804688 159.28671875 -89.58984375 158.2109375 C-90.96669717 155.07583082 -91.59842216 152.38545368 -92 149 C-91.02582626 148.99413376 -90.05165253 148.98826752 -89.04795837 148.98222351 C-79.85238818 148.92492803 -70.65705293 148.85213081 -61.46172237 148.76428509 C-56.73467156 148.71962091 -52.00770615 148.68035608 -47.28051758 148.65356445 C-42.71567357 148.62749203 -38.15115889 148.58706181 -33.58651924 148.53681374 C-31.84791737 148.52017163 -30.10925857 148.50864084 -28.3705883 148.50238609 C-25.92892071 148.49271593 -23.48809062 148.46462289 -21.04663086 148.43237305 C-19.97631874 148.43452568 -19.97631874 148.43452568 -18.88438416 148.4367218 C-13.82573425 148.34266536 -10.42211404 147.2904382 -6 145 C-1.84957422 140.63113076 -0.87965891 137.352456 -0.84178162 131.43818665 C-0.8319928 130.28132355 -0.82220398 129.12446045 -0.81211853 127.93254089 C-0.80636307 126.66227554 -0.8006076 125.39201019 -0.79467773 124.08325195 C-0.78509827 122.73306987 -0.77508814 121.38289078 -0.76467896 120.03271484 C-0.73763125 116.36567322 -0.71662096 112.69861874 -0.69667697 109.03153253 C-0.6748166 105.19980538 -0.64742816 101.36811789 -0.62062073 97.53642273 C-0.57069454 90.27981263 -0.52575543 83.02318052 -0.48259836 75.76652735 C-0.43322536 67.50540381 -0.37830746 59.24432006 -0.32291877 50.983235 C-0.20909986 33.98886011 -0.10226061 16.99444829 0 0 Z " fill="#595FAB" transform="translate(269,149)"/>
<path d="M0 0 C3.96 0 7.92 0 12 0 C12.33 13.2 12.66 26.4 13 40 C14.32 40.33 15.64 40.66 17 41 C17 27.47 17 13.94 17 0 C21.29 0 25.58 0 30 0 C30 16.5 30 33 30 50 C26.04 50 22.08 50 18 50 C17.67 49.01 17.34 48.02 17 47 C16.39671875 47.73089844 16.39671875 47.73089844 15.78125 48.4765625 C13.5482447 50.38636966 12.40174197 50.40401742 9.5 50.375 C8.33984375 50.38660156 8.33984375 50.38660156 7.15625 50.3984375 C4.46003689 49.90022421 3.66956398 49.14519558 2 47 C0.29039226 44.0710135 -0.24693775 41.97941767 -0.22705078 38.59863281 C-0.22689972 37.7380426 -0.22674866 36.87745239 -0.22659302 35.99078369 C-0.21627045 35.07085632 -0.20594788 34.15092896 -0.1953125 33.203125 C-0.1924826 32.25435486 -0.18965271 31.30558472 -0.18673706 30.32806396 C-0.17555448 27.30191361 -0.1504533 24.2760607 -0.125 21.25 C-0.11496772 19.19661886 -0.1058423 17.14323308 -0.09765625 15.08984375 C-0.07562141 10.05978146 -0.04110462 5.02994114 0 0 Z " fill="#FEA50C" transform="translate(259,411)"/>
<path d="M0 0 C5.61 0 11.22 0 17 0 C17.0926412 19.04548652 17.1640016 38.0909093 17.20724869 57.13657475 C17.22786383 65.98004393 17.25596433 74.82337044 17.30175781 83.66674805 C17.34165774 91.37567839 17.36744044 99.08450539 17.37635398 106.79353613 C17.38156341 110.87451722 17.3937854 114.9552027 17.42292023 119.03608894 C17.45013937 122.87991371 17.458432 126.72332205 17.45243073 130.56723404 C17.45352807 131.97530444 17.46144356 133.38338926 17.4768219 134.79137611 C17.61761274 148.35069513 17.61761274 148.35069513 13 154 C11.35 154.99 9.7 155.98 8 157 C8.33 105.52 8.66 54.04 9 1 C6.03 1 3.06 1 0 1 C0 0.67 0 0.34 0 0 Z " fill="#6E76D2" transform="translate(261,148)"/>
<path d="M0 0 C4.10840813 0.21185162 6.30258968 1.42100692 9.125 4.5 C10.05771005 7.30689626 10.24739434 9.86508076 10.23852539 12.80957031 C10.23844986 13.65013977 10.23837433 14.49070923 10.23829651 15.35675049 C10.23313522 16.25480408 10.22797394 17.15285767 10.22265625 18.078125 C10.2212413 19.0046991 10.21982635 19.93127319 10.21836853 20.88592529 C10.21277824 23.84064992 10.2002275 26.79529833 10.1875 29.75 C10.18248375 31.75520724 10.17792106 33.76041567 10.17382812 35.765625 C10.16281199 40.67711263 10.145554 45.5885434 10.125 50.5 C6.165 50.5 2.205 50.5 -1.875 50.5 C-2.205 37.3 -2.535 24.1 -2.875 10.5 C-3.865 10.5 -4.855 10.5 -5.875 10.5 C-6.205 23.7 -6.535 36.9 -6.875 50.5 C-10.835 50.5 -14.795 50.5 -18.875 50.5 C-18.875 34.33 -18.875 18.16 -18.875 1.5 C-15.245 1.5 -11.615 1.5 -7.875 1.5 C-7.545 2.49 -7.215 3.48 -6.875 4.5 C-6.545 3.84 -6.215 3.18 -5.875 2.5 C-3.875 0.5 -3.875 0.5 0 0 Z " fill="#FEA306" transform="translate(244.875,410.5)"/>
<path d="M0 0 C4.84637378 2.93989586 8.93604869 6.87708778 10.59765625 12.4375 C12.25670808 23.00388833 12.05302346 32.91068351 5.69140625 41.8359375 C3.9729546 44.00822356 2.50042029 45.74978986 0 47 C-4.24418145 47.48047337 -6.24301254 47.58094387 -9.6875 44.9375 C-17.09584537 35.52689912 -17.91219403 26.91426663 -17.28271484 15.27685547 C-16.55370298 9.40572881 -13.39044338 5.04494961 -9 1.2890625 C-5.75936582 -0.7996275 -3.7780654 -0.62967757 0 0 Z " fill="#F6F6F6" transform="translate(161,221)"/>
<path d="M0 0 C3.96 0 7.92 0 12 0 C13.32 2.97 14.64 5.94 16 9 C17.99097846 6.01353231 18.94124926 3.40312738 20 0 C22.97 0 25.94 0 29 0 C27.69120922 6.90089685 25.52587823 13.14209154 22.92578125 19.66796875 C21.03425906 26.47585242 24.12838994 32.41649381 26.5625 38.75 C27.21252561 40.45202401 27.85980272 42.15510106 28.50390625 43.859375 C28.79080322 44.60670898 29.0777002 45.35404297 29.37329102 46.12402344 C30 48 30 48 30 50 C26.04 50 22.08 50 18 50 C14 40.375 14 40.375 14 37 C13.34 37 12.68 37 12 37 C11.87882812 37.60328125 11.75765625 38.2065625 11.6328125 38.828125 C11.46523438 39.62734375 11.29765625 40.4265625 11.125 41.25 C10.96257812 42.03890625 10.80015625 42.8278125 10.6328125 43.640625 C10 46 10 46 8 50 C5.03 50 2.06 50 -1 50 C-0.75241943 49.2793335 -0.50483887 48.55866699 -0.24975586 47.81616211 C0.8699516 44.52835868 1.9663624 41.23323258 3.0625 37.9375 C3.45244141 36.80376953 3.84238281 35.67003906 4.24414062 34.50195312 C7.42532587 24.84578907 6.62767676 18.92578474 2.9375 9.6875 C0 2.23283753 0 2.23283753 0 0 Z " fill="#FEA307" transform="translate(292,411)"/>
<path d="M0 0 C6.72594266 -0.1015993 13.45168668 -0.17154911 20.17822266 -0.21972656 C22.46540726 -0.23981517 24.75254068 -0.26709128 27.03955078 -0.30175781 C30.33118334 -0.35039558 33.62213557 -0.37299679 36.9140625 -0.390625 C37.93303619 -0.41127014 38.95200989 -0.43191528 40.00186157 -0.45318604 C46.01914268 -0.45507868 49.41557964 -0.00098188 54 4 C58.40114344 8.99589256 59.14490469 11.90060062 59.09765625 18.4140625 C59.09553383 19.50852188 59.09553383 19.50852188 59.09336853 20.62509155 C59.08776531 22.95843585 59.07521235 25.29168464 59.0625 27.625 C59.05748541 29.20572778 59.05292243 30.78645707 59.04882812 32.3671875 C59.03779484 36.24482854 59.02052811 40.12239807 59 44 C55.37 44 51.74 44 48 44 C48.66 43.67 49.32 43.34 50 43 C49.9479239 39.12392213 49.85279802 35.25003829 49.75 31.375 C49.73582031 30.28058594 49.72164062 29.18617187 49.70703125 28.05859375 C49.49468249 19.75940622 49.49468249 19.75940622 45 13 C37.26524066 7.67174278 28.94512881 8.46377956 19.93554688 8.54589844 C18.20039903 8.5470278 16.46524928 8.54639132 14.73010254 8.54412842 C10.03634219 8.54298382 5.34299323 8.56645195 0.64932823 8.59442425 C-4.26203941 8.61948027 -9.17341717 8.62178321 -14.08483887 8.62652588 C-23.37781292 8.63894331 -32.67059807 8.67174826 -41.96348906 8.71192384 C-52.54627603 8.7566799 -63.12907217 8.77863823 -73.71193027 8.79870558 C-95.47472549 8.84048196 -117.23735083 8.91081006 -139 9 C-139 8.67 -139 8.34 -139 8 C-92.8 8 -46.6 8 1 8 C0.67 5.36 0.34 2.72 0 0 Z " fill="#757DD3" transform="translate(219,87)"/>
<path d="M0 0 C3.45052218 2.30034812 3.53718823 3.29130994 5 7 C6.74798377 9.39377789 6.74798377 9.39377789 8.8125 11.625 C9.47894531 12.38039063 10.14539063 13.13578125 10.83203125 13.9140625 C12.9557246 16.11467031 12.9557246 16.11467031 15.76171875 17.6484375 C16.50035156 18.09445312 17.23898438 18.54046875 18 19 C18 19.66 18 20.32 18 21 C5.26395019 27.68642615 -7.64082682 30.34636423 -21.8125 26.375 C-27.1578063 24.54787712 -32.18292477 22.28884857 -36 18 C-36.9140625 16.06640625 -36.9140625 16.06640625 -37 14 C-35.6015625 11.96484375 -35.6015625 11.96484375 -33.625 9.9375 C-31.26833071 7.49163406 -30.08915266 6.26745798 -29 3 C-28.34 3 -27.68 3 -27 3 C-26.67 2.34 -26.34 1.68 -26 1 C-25.76925781 1.59167969 -25.53851563 2.18335938 -25.30078125 2.79296875 C-23.25856691 7.74110073 -21.4639139 11.78182951 -17 15 C-12.97140864 15.64745218 -10.88113112 15.49179412 -7.3125 13.5 C-3.66111802 9.55256002 -1.68876646 5.06629939 0 0 Z " fill="#090809" transform="translate(171,252)"/>
<path d="M0 0 C0.33 0 0.66 0 1 0 C1.44497608 8.75119617 1.44497608 8.75119617 -2 13 C-7.47829834 18.41691684 -11.33251754 19.12709979 -18.87988281 19.11352539 C-19.90488388 19.11374443 -19.90488388 19.11374443 -20.95059204 19.1139679 C-23.20146904 19.11327315 -25.45226252 19.10550132 -27.703125 19.09765625 C-29.2668249 19.09579051 -30.83052538 19.09436734 -32.39422607 19.09336853 C-36.50416689 19.08955562 -40.61407221 19.0797358 -44.72399902 19.06866455 C-48.92016113 19.05842407 -53.11632899 19.05386526 -57.3125 19.04882812 C-65.54168293 19.03811242 -73.77083705 19.02105073 -82 19 C-82.66 16.03 -83.32 13.06 -84 10 C-83.10321533 9.99857498 -82.20643066 9.99714996 -81.2824707 9.99568176 C-72.80820516 9.97781135 -64.33445918 9.93607828 -55.86044312 9.86790943 C-51.50438629 9.83369907 -47.14867796 9.80853878 -42.79248047 9.80444336 C-38.58407818 9.80014753 -34.37646123 9.77157956 -30.16830444 9.72656822 C-28.5672972 9.71363402 -26.96619578 9.70927105 -25.36514282 9.71384621 C-13.23026648 9.92479807 -13.23026648 9.92479807 -3 4 C-1.11696038 1.85823993 -1.11696038 1.85823993 0 0 Z " fill="#383C6D" transform="translate(259,279)"/>
<path d="M0 0 C1.8125 0.0625 1.8125 0.0625 4 1 C5.0209375 2.2375 5.0209375 2.2375 6.0625 3.5 C10.33606776 7.13707895 14.5437052 6.89488749 20 7 C18.23158112 16.28419912 10.20187083 23.54993559 3 29 C-0.22760391 30.61380195 -2.40579169 30.39935648 -6 30 C-12.82914975 26.79348166 -18.82608201 21.25519045 -23 15 C-23 13.68 -23 12.36 -23 11 C-22.40574219 10.93683594 -21.81148437 10.87367188 -21.19921875 10.80859375 C-12.966582 9.59226328 -5.91331775 5.91331775 0 0 Z " fill="#EC8D1D" transform="translate(197,243)"/>
<path d="M0 0 C3.36748729 0.93143266 5.12206735 2.10686071 7.80859375 4.30078125 C13.0139448 8.16716072 17.73944874 9.26879341 24.12109375 9.86328125 C23.24317133 15.88479618 20.13179141 19.44055513 15.4609375 23.19921875 C11.61599623 25.86328125 11.61599623 25.86328125 9.12109375 25.86328125 C8.79109375 26.85328125 8.46109375 27.84328125 8.12109375 28.86328125 C3.11697805 29.48879571 -0.72661188 29.47131663 -4.94140625 26.48828125 C-10.49186457 21.8165528 -16.09473499 15.64091028 -18.87890625 8.86328125 C-18.87890625 7.87328125 -18.87890625 6.88328125 -18.87890625 5.86328125 C-18.22664063 5.84910156 -17.574375 5.83492187 -16.90234375 5.8203125 C-10.67902438 5.54090468 -10.67902438 5.54090468 -5.62890625 2.23828125 C-2.87890625 -0.13671875 -2.87890625 -0.13671875 0 0 Z " fill="#ED8D1E" transform="translate(117.87890625,244.13671875)"/>
<path d="M0 0 C-3.12506412 4.68759618 -6.64112311 7.37950996 -12 9 C-17.51544248 9.54646621 -22.99468302 9.46666993 -28.53125 9.390625 C-30.13406668 9.38315418 -31.73689256 9.37746522 -33.33972168 9.37347412 C-37.53533649 9.35828378 -41.73038748 9.31906025 -45.92578125 9.2746582 C-50.21606827 9.23356194 -54.5064474 9.21543262 -58.796875 9.1953125 C-67.1981739 9.15255842 -75.59901659 9.08438872 -84 9 C-85.32 6.03 -86.64 3.06 -88 0 C-76.96926478 -0.15373756 -65.93847037 -0.30191918 -54.90756512 -0.4429636 C-49.78574722 -0.50862824 -44.66396981 -0.57622282 -39.54223633 -0.64819336 C-34.6015764 -0.71754902 -29.66087449 -0.78188041 -24.72010231 -0.84269524 C-22.83299182 -0.86681276 -20.94590376 -0.89275557 -19.05884361 -0.92053413 C-16.42036828 -0.95906535 -13.78188852 -0.99116732 -11.14331055 -1.02172852 C-10.3592836 -1.03467453 -9.57525665 -1.04762054 -8.76747131 -1.06095886 C-5.56218676 -1.09232647 -3.06568733 -1.02189578 0 0 Z " fill="#636ABE" transform="translate(268,307)"/>
<path d="M0 0 C3.96 0 7.92 0 12 0 C12 19.47 12 38.94 12 59 C8.04 59 4.08 59 0 59 C0 39.53 0 20.06 0 0 Z " fill="#FEA203" transform="translate(192,402)"/>
<path d="M0 0 C3.96 0 7.92 0 12 0 C12 16.5 12 33 12 50 C8.04 50 4.08 50 0 50 C0 33.5 0 17 0 0 Z " fill="#FEA202" transform="translate(209,411)"/>
<path d="M0 0 C4.14949241 0.77765012 5.86020071 2.39667743 8.66796875 5.5 C10.49475981 9.15358212 10.30720701 13.48008344 10.66796875 17.5 C13.96796875 18.82 17.26796875 20.14 20.66796875 21.5 C20.66796875 22.16 20.66796875 22.82 20.66796875 23.5 C4.3147948 25.39907827 -13.88762431 18.72220347 -28.33203125 11.5 C-28.33203125 10.84 -28.33203125 10.18 -28.33203125 9.5 C-23.49868405 9.41666643 -19.09510562 9.54738513 -14.33203125 10.5 C-14.23921875 9.4171875 -14.23921875 9.4171875 -14.14453125 8.3125 C-11.97373154 0.79819333 -7.09508384 -0.30640038 0 0 Z " fill="#05050C" transform="translate(179.33203125,104.5)"/>
<path d="M0 0 C8.58 0 17.16 0 26 0 C27 5 27 5 25.5 8.0625 C21.50325661 12.75867348 18.13838094 14.6266319 12.0625 15.6875 C7.56786077 15.43242263 4.83364911 13.10795465 1.46875 10.3125 C0 8 0 8 0 0 Z " fill="#F18B1C" transform="translate(146,195)"/>
<path d="M0 0 C4.65422701 -0.37233816 8.05195253 -0.46507989 12.3125 1.625 C16.18747677 5.04939808 18.71100015 7.52594931 19.31958008 12.73583984 C19.39341703 15.95776979 19.34864659 19.15380944 19.25 22.375 C19.23195313 23.49261719 19.21390625 24.61023438 19.1953125 25.76171875 C19.14835555 28.5087003 19.08269468 31.25390047 19 34 C16.66705225 34.04241723 14.33297433 34.04092937 12 34 C9.6494603 31.6494603 10.64317822 24.77824249 10.5703125 21.40820312 C10.35527613 15.66046017 9.41054898 11.24512223 7 6 C4.56391207 3.61611084 4.56391207 3.61611084 2 2 C1.34 1.34 0.68 0.68 0 0 Z " fill="#464B88" transform="translate(250,96)"/>
<path d="M0 0 C0.99 0 1.98 0 3 0 C4.72508386 3.00133756 5.25579006 5.17434052 5.265625 8.625 C5.26820313 9.49640625 5.27078125 10.3678125 5.2734375 11.265625 C5.26570312 12.16796875 5.25796875 13.0703125 5.25 14 C5.25773438 14.90234375 5.26546875 15.8046875 5.2734375 16.734375 C5.27085937 17.60578125 5.26828125 18.4771875 5.265625 19.375 C5.26336914 20.16648438 5.26111328 20.95796875 5.25878906 21.7734375 C4.97336112 24.22919493 4.22452681 25.86954224 3 28 C2.01 28 1.02 28 0 28 C-0.33 26.68 -0.66 25.36 -1 24 C-1.66 24 -2.32 24 -3 24 C-3.05447822 21.47886908 -3.09389852 18.9589415 -3.125 16.4375 C-3.14175781 15.73302734 -3.15851563 15.02855469 -3.17578125 14.30273438 C-3.22021826 9.48131879 -2.58569681 5.56328304 -1 1 C-0.67 0.67 -0.34 0.34 0 0 Z " fill="#DCDCDC" transform="translate(172,155)"/>
<path d="M0 0 C0.99 0.33 1.98 0.66 3 1 C5.02587484 5.49893276 5.29758317 9.6072788 5.3125 14.5 C5.32925781 15.7684375 5.34601563 17.036875 5.36328125 18.34375 C4.97799171 22.22150275 3.95322922 24.66044186 2 28 C0.0625 27.625 0.0625 27.625 -2 27 C-3.87354157 23.25291686 -3.22800786 18.74852647 -3.25 14.625 C-3.270625 13.6659375 -3.29125 12.706875 -3.3125 11.71875 C-3.31765625 10.79320312 -3.3228125 9.86765625 -3.328125 8.9140625 C-3.3374707 8.0679541 -3.34681641 7.2218457 -3.35644531 6.35009766 C-2.92655982 3.51579781 -1.86469554 2.13363017 0 0 Z " fill="#DBDBDB" transform="translate(147,155)"/>
<path d="M0 0 C3.96 0 7.92 0 12 0 C12 2.64 12 5.28 12 8 C8.04 8 4.08 8 0 8 C0 5.36 0 2.72 0 0 Z " fill="#FEA204" transform="translate(209,400)"/>
<path d="M0 0 C-1.52961986 3.44164469 -3.62729066 6.09151758 -6 9 C-6.33 9.66 -6.66 10.32 -7 11 C-7.99 10.67 -8.98 10.34 -10 10 C-9.34 10 -8.68 10 -8 10 C-7.938125 9.278125 -7.87625 8.55625 -7.8125 7.8125 C-6.740711 4.10246115 -4.22824726 0 0 0 Z " fill="#14162F" transform="translate(173,105)"/>
</svg>
